<?xml version="1.0" encoding="UTF-8"?> <svg xmlns="http://www.w3.org/2000/svg" xmlns:xlink="http://www.w3.org/1999/xlink" fill="none" height="214" viewBox="0 0 411 214" width="411"><clipPath id="a"><path d="m97.7778.847412h251.222v211.969h-251.222z"></path></clipPath><mask id="b" height="31" maskUnits="userSpaceOnUse" width="20" x="110" y="114"><path d="m115.964 144.485c-5.053-10.869-5.634-21.632-4.736-27.885 10.862-4.351 14.911-.775 17.834 6.5 2.905 7.293-2.236 17.034-13.098 21.367z" fill="#fff"></path></mask><mask id="c" height="32" maskUnits="userSpaceOnUse" width="45" x="139" y="115"><path d="m183.478 135.909c1.9-8.158-6.415-17.07-18.574-19.905-12.158-2.836-23.555 1.479-25.455 9.636-1.9 8.158 6.415 17.07 18.574 19.906 12.158 2.835 23.555-1.479 25.455-9.637z" fill="#fff"></path></mask><mask id="d" height="9" maskUnits="userSpaceOnUse" width="16" x="129" y="143"><path d="m144.519 149.558c-1.972 1.938-3.592-2.131-6.743-1.849-4.753.422-5.228 5.038-7.535 2.889-1.707-1.586 1.866-7.011 7.077-7.328 5.247-.318 8.926 4.597 7.201 6.288z" fill="#fff"></path></mask><path d="m10.925 161.793v-37.348l60.161-85.8003h48.25v84.3873h14.535v38.761h-14.535v22.207h-45.2218v-22.207zm66.8231-72.0721-21.8033 33.3111h21.8033z" fill="#00084d"></path><path d="m278.925 161.793v-37.348l60.161-85.8003h48.25v84.3873h14.535v38.761h-14.535v22.207h-45.222v-22.207zm66.823-72.0721-21.803 33.3111h21.803z" fill="#00084d"></path><g clip-path="url(#a)"><path d="m164.835 146.035s-17.517 37.31-29.189 58.449c7.852.229 27.622.405 34.611-31.356 1.866-20.328-5.422-27.093-5.422-27.093z" fill="#1d63ec"></path><path d="m164.835 146.035c5.475 10.834-4.859 58.079-28.309 58.484 18.151 4.333 31.126-13.036 34.013-30.669 3.257-16.435-3.926-26.054-5.722-27.815z" fill="#000"></path><path d="m113.147 98.2792s112.619.8455 157.969-1.4621c3.908-.1938 13.327-1.0922 17.834-5.6018 0 0-13.486-23.6049 9.453-46.5581 0 0 16.479 12.7537 17.095 32.3951 0 0 17.288-9.2834 33.502 3.7346 0 0-10 24.0981-44.417 24.0981 0 0-36.953 91.355-126.544 85.753-54.787-3.435-73.959-56.388-64.892-92.3588z" fill="#1d63ec"></path><path d="m183.795 169.781c36.953 13.317 63.871-.476 67.146-1.815-12.465 9.002-36.883 22.302-72.515 20.082-16.637-1.039-28.943-5.813-40.65-15.114 1.479-1.85 12.482-15.238 46.019-3.153z" fill="#000"></path><g fill="#1d63ec"><path d="m117.513 65.1622-3.151 25.0318 25.351-.1762 2.957-24.8908z"></path><path d="m150.152 65.1622-3.151 25.0318 25.351-.1762 2.958-24.8908z"></path><path d="m182.792 65.1622-3.151 25.0318 25.351-.1762 2.975-24.8908z"></path><path d="m215.432 65.1622-3.134 25.0318 25.333-.1762 2.976-24.8908z"></path><path d="m154.307 33.0313-3.151 25.0142 25.351-.1762 2.958-24.8732z"></path><path d="m186.947 33.0313-3.152 25.0142 25.352-.1762 2.957-24.8732z"></path><path d="m219.586 33.0313-3.151 25.0142 25.351-.1762 2.958-24.8732z"></path><path d="m223.723.882643-3.133 25.014157 25.333-.1761 2.975-24.873288z"></path><path d="m248.863 65.1622-3.151 25.0318 25.351-.1762 2.958-24.8908z"></path></g><path d="m299.072 47.335s13.591 11.2563 15.211 30.2636c0 0-5.633 2.0963-15.193 11.9962 12.095-21.262-.035-42.2598-.035-42.2598z" fill="#000"></path><path d="m304.301 103.124s-4.507-1.885-8.943-6.5182c5.898 2.7833 34.206 1.374 52.163-15.3079 0 0-10.827 21.4031-43.22 21.8261z" fill="#000"></path><path d="m211.787 157.38s-10.14 38.913-13.608 55.436c1.197-.035 22.745-2.466 26.918-25.895-3.398-20.117-13.31-29.541-13.31-29.541z" fill="#000"></path><path d="m213.706 146.035s-7.376 40.569-13.256 63.98c7.64-1.797 26.812-6.694 25.421-39.177-3.398-20.117-12.182-24.803-12.182-24.803z" fill="#1d63ec"></path><path d="m213.706 146.035c8.063 9.072 10.176 57.374-12.376 63.786 18.661-.476 26.759-20.575 25.034-38.367-1.074-16.717-10.475-24.168-12.64-25.419z" fill="#000"></path><path d="m115.964 144.485c-3.838-8.015-5.475-17.58-4.947-26.229 4.207-2.378 16.038-1.973 18.96 5.32 2.905 7.292-3.133 16.558-13.996 20.892z" fill="#fff"></path><g mask="url(#b)"><path d="m121.41 152.266c5.791-4.763 6.236-13.797.994-20.178s-14.185-7.692-19.976-2.929c-5.7915 4.763-6.2368 13.797-.995 20.178 5.242 6.381 14.186 7.692 19.977 2.929z" fill="#000"></path></g><path d="m129.801 131.925s-3.891 10.182-13.837 12.56c0 0-1.25-2.572-1.919-4.721.405-.652 1.69-1.356 3.908-1.321 2.834.053 3.574-2.695 5.158-4.651 1.778-2.219 6.708-1.867 6.708-1.867z" fill="#89c5f3"></path><path d="m181.031 125.901c5.493 7.698 4.155 16.065 1.884 22.178 0 0-5.933-3.435-10.915-2.431-12.658 2.572-8.08-13.97-8.08-13.97s9.136-6.817 17.111-5.795z" fill="#fff"></path><path d="m183.478 135.909c1.9-8.158-6.415-17.07-18.574-19.905-12.158-2.836-23.555 1.479-25.455 9.636-1.9 8.158 6.415 17.07 18.574 19.906 12.158 2.835 23.555-1.479 25.455-9.637z" fill="#fff"></path><g mask="url(#c)"><path d="m159.009 156.746c7.968-.63 13.864-8.264 13.169-17.051-.694-8.787-7.715-15.399-15.683-14.769-7.967.63-13.863 8.265-13.169 17.051.694 8.787 7.716 15.4 15.683 14.769z" fill="#000"></path></g><path d="m182.915 148.079s-3.908-10.446-12.077-8.755c-10.985 2.272-16.02 2.448-18.749-1.691-3.803-5.778-8.01-6.236-11.954-5.074 3.486 8.086 11.866 11.486 17.887 12.983.792.194 5.158 1.673 4.718 5.461-1.285 10.904 2.377 12.031 3.961 12.049 2.975.035 3.503-4.245 1.109-10.076-1.25-3.065-.475-5.549 1.321-6.254 2.341-.916 8.679-1.303 13.784 1.357z" fill="#89c5f3"></path><path d="m144.519 149.558c-1.972 1.938-3.592-2.131-6.743-1.849-4.753.422-5.228 5.038-7.535 2.889-1.707-1.586 1.866-7.011 7.077-7.328 5.247-.318 8.926 4.597 7.201 6.288z" fill="#000"></path><path d="m144.519 149.558c-1.972 1.938-3.592-2.131-6.743-1.849-4.753.422-5.228 5.038-7.535 2.889-1.707-1.586 1.866-7.011 7.077-7.328 5.247-.318 8.926 4.597 7.201 6.288z" stroke="#000" stroke-linecap="square" stroke-linejoin="round" stroke-width=".896288"></path><g mask="url(#d)"><path d="m144.184 151.161c-1.179-7.909-9.682-6.482-11.02-.387.053.616.387 3.629 6.197 2.748 2.288-.352 4.454-1.18 4.823-2.343z" fill="#ff5c4b"></path></g></g></svg> 