<?xml version="1.0" standalone="no"?>
<!DOCTYPE svg PUBLIC "-//W3C//DTD SVG 20010904//EN"
 "http://www.w3.org/TR/2001/REC-SVG-20010904/DTD/svg10.dtd">
<svg version="1.0" xmlns="http://www.w3.org/2000/svg"
 width="7048.000000pt" height="1137.000000pt" viewBox="0 0 7048.000000 1137.000000"
 preserveAspectRatio="xMidYMid meet">

<g transform="translate(0.000000,1137.000000) scale(0.100000,-0.100000)"
fill="#000000" stroke="none">
<path d="M4724 11320 c-346 -90 -573 -393 -574 -769 l0 -104 58 6 c31 4 100
11 152 17 346 38 742 38 1090 0 52 -6 122 -13 154 -17 l59 -6 -6 144 c-4 124
-9 156 -34 230 -85 252 -281 434 -538 499 -104 26 -261 26 -361 0z"/>
<path d="M4665 9900 c-212 -10 -500 -47 -690 -89 -22 -5 -62 -14 -90 -20 -47
-10 -69 -16 -155 -40 -19 -5 -62 -17 -94 -25 -118 -33 -345 -113 -481 -172
-921 -395 -1687 -1088 -2176 -1969 -49 -89 -157 -309 -180 -367 -11 -28 -28
-70 -39 -92 -41 -90 -120 -322 -164 -481 -43 -155 -66 -257 -105 -465 -16 -84
-36 -248 -47 -377 l-7 -83 4467 0 4466 0 0 56 c0 30 -4 88 -10 127 -5 40 -14
108 -20 152 -48 366 -165 785 -318 1145 -49 115 -198 408 -257 506 -210 347
-384 571 -665 857 -363 371 -730 641 -1178 866 -241 121 -423 196 -647 266
-66 20 -131 41 -145 45 -203 63 -554 127 -820 149 -181 15 -461 20 -645 11z"/>
<path d="M20735 9519 c-132 -20 -284 -127 -347 -245 -66 -123 -62 -36 -66
-1456 -1 -709 -4 -1288 -6 -1288 -2 0 -51 35 -108 78 -355 267 -760 434 -1223
504 -141 21 -638 18 -785 -5 -158 -25 -383 -81 -515 -129 -244 -89 -526 -249
-745 -424 -119 -95 -361 -339 -460 -464 -265 -333 -443 -706 -529 -1102 -98
-454 -87 -969 30 -1407 106 -399 314 -780 602 -1102 382 -428 842 -715 1352
-842 248 -62 344 -72 675 -72 331 0 427 10 675 72 353 88 694 259 995 499 120
96 393 371 480 484 352 459 526 917 569 1505 7 92 11 963 11 2535 0 2073 -2
2404 -15 2465 -57 270 -307 438 -590 394z m-1950 -3429 c208 -23 365 -69 551
-159 362 -177 628 -446 809 -816 125 -256 166 -427 173 -725 3 -178 1 -222
-18 -335 -78 -463 -337 -878 -718 -1152 -107 -77 -336 -193 -457 -232 -332
-106 -698 -106 -1030 0 -124 40 -352 156 -460 234 -366 263 -616 655 -707
1107 -20 97 -23 144 -23 333 0 190 3 236 23 334 91 452 343 844 710 1108 107
77 336 193 457 232 218 70 468 96 690 71z"/>
<path d="M33795 9520 c-213 -44 -375 -217 -404 -433 -9 -60 -11 -1006 -9
-3597 l3 -3515 23 -65 c57 -161 183 -285 335 -332 55 -16 88 -20 176 -16 100
3 113 6 182 40 123 61 224 175 271 308 l23 65 3 952 3 953 292 196 c160 107
294 196 298 197 3 1 513 -581 1133 -1293 865 -994 1141 -1305 1187 -1337 79
-56 168 -83 273 -83 140 1 238 37 334 124 136 125 201 303 172 475 -26 158 12
110 -1159 1456 -818 941 -1066 1233 -1057 1242 6 7 466 314 1021 682 604 400
1032 691 1066 723 91 87 131 193 131 353 1 71 -5 105 -24 161 -63 179 -204
309 -377 345 -83 17 -214 7 -286 -23 -36 -14 -656 -421 -1528 -1001 -808 -537
-1470 -977 -1473 -977 -2 0 -5 897 -7 1993 -3 2193 2 2026 -63 2148 -41 77
-148 180 -225 217 -99 47 -214 62 -314 42z"/>
<path d="M62885 8867 c-109 -37 -186 -104 -233 -205 l-27 -57 -3 -842 -3 -842
-382 -3 c-367 -3 -384 -4 -429 -25 -63 -29 -134 -96 -166 -158 -24 -44 -27
-61 -27 -150 0 -92 2 -104 29 -153 37 -66 92 -116 165 -151 l56 -26 378 -3
377 -3 0 -1419 c0 -913 4 -1455 10 -1521 48 -475 243 -888 566 -1199 233 -225
470 -361 769 -440 153 -41 289 -59 510 -66 298 -10 407 14 511 108 65 60 98
120 114 207 31 169 -55 353 -197 422 -45 21 -65 23 -303 30 -278 8 -348 16
-473 55 -159 51 -278 124 -404 250 -178 178 -289 413 -323 684 -6 55 -10 578
-10 1487 l0 1402 618 3 617 3 63 29 c77 35 153 114 176 182 9 26 16 80 16 119
0 39 -7 93 -16 119 -22 64 -101 148 -172 183 l-57 28 -622 3 -623 3 0 804 c0
834 -2 869 -42 949 -34 66 -112 141 -181 172 -50 23 -79 28 -152 31 -56 2
-105 -2 -130 -10z"/>
<path d="M10549 8338 c-218 -328 -341 -652 -406 -1068 -25 -164 -25 -604 0
-740 58 -309 165 -584 303 -776 30 -42 54 -79 54 -84 0 -12 -271 -143 -384
-185 -178 -66 -406 -119 -641 -149 -440 -57 -939 -66 -3105 -55 -960 5 -2782
8 -4050 7 l-2305 -3 1 -245 c2 -562 92 -1149 264 -1712 180 -593 465 -1144
824 -1594 908 -1141 2279 -1724 4051 -1724 1517 0 2828 453 3935 1359 361 295
718 661 1036 1061 522 657 1019 1531 1389 2441 l47 117 316 5 c251 4 344 9
447 25 392 61 718 191 978 389 83 62 236 211 306 298 114 139 215 306 322 533
l58 122 -137 92 c-149 100 -233 142 -361 182 -234 74 -465 106 -796 113 -290
6 -466 -8 -680 -52 -66 -13 -127 -25 -135 -25 -13 0 -18 24 -29 122 -54 520
-337 1013 -821 1430 -102 88 -323 248 -364 264 -11 4 -43 -37 -117 -148z"/>
<path d="M51515 7160 c-610 -67 -1125 -309 -1540 -725 -389 -389 -644 -890
-744 -1465 -38 -219 -46 -320 -46 -605 0 -293 8 -388 50 -621 156 -849 703
-1565 1468 -1924 472 -221 1056 -310 1592 -244 533 66 1140 318 1502 623 93
78 126 142 126 240 0 52 -6 81 -26 124 -32 71 -107 151 -172 185 -45 24 -61
27 -155 27 -134 0 -170 -13 -307 -116 -185 -139 -348 -221 -603 -303 -411
-133 -841 -148 -1251 -45 -719 181 -1276 754 -1448 1489 -18 74 -51 271 -51
300 0 6 713 11 2093 12 2398 3 2142 -8 2254 103 84 85 95 121 94 330 -4 572
-164 1122 -455 1565 -326 496 -806 837 -1378 981 -227 57 -347 71 -648 74
-151 2 -311 0 -355 -5z m597 -696 c586 -81 1035 -407 1307 -949 98 -196 185
-489 206 -697 l7 -68 -1852 0 -1853 0 7 60 c4 32 20 112 36 177 110 451 342
837 650 1086 271 218 564 345 909 392 138 19 446 18 583 -1z"/>
<path d="M57670 7159 c-976 -100 -1785 -661 -2211 -1532 -266 -545 -345 -1229
-218 -1887 165 -862 752 -1605 1547 -1960 605 -270 1385 -301 2017 -80 444
156 870 463 1143 826 26 35 50 63 54 64 4 0 8 -159 10 -352 l3 -353 29 -62
c33 -72 113 -154 180 -183 101 -45 258 -43 363 4 68 32 138 103 171 174 l27
57 3 1285 c2 885 0 1330 -8 1430 -55 710 -344 1333 -841 1815 -445 431 -990
684 -1617 750 -149 16 -511 18 -652 4z m607 -704 c529 -69 985 -332 1315 -758
309 -401 453 -869 435 -1421 -11 -340 -75 -611 -212 -891 -268 -550 -749 -942
-1320 -1075 -226 -52 -568 -70 -785 -41 -605 82 -1103 393 -1432 896 -174 265
-273 529 -325 865 -24 157 -24 498 1 665 36 246 113 489 218 685 318 597 887
994 1544 1079 117 15 432 12 561 -4z"/>
<path d="M67970 7159 c-439 -48 -820 -178 -1100 -377 -189 -134 -377 -353
-459 -533 -134 -295 -161 -703 -65 -988 91 -272 289 -514 572 -701 312 -207
701 -340 1302 -444 480 -84 773 -167 1010 -286 268 -135 424 -306 481 -528 57
-224 -15 -478 -188 -662 -131 -140 -251 -218 -427 -279 -103 -36 -286 -75
-436 -92 -162 -18 -550 -16 -700 5 -511 70 -887 246 -1169 548 -103 110 -205
154 -342 146 -105 -6 -187 -46 -262 -128 -73 -79 -100 -148 -101 -255 0 -109
23 -154 144 -279 211 -218 450 -375 763 -500 581 -233 1251 -306 1883 -206
223 36 476 116 689 220 223 109 376 219 536 388 196 208 312 444 355 727 21
131 13 372 -15 500 -94 429 -357 739 -829 978 -293 149 -624 245 -1152 337
-449 78 -739 158 -951 265 -245 123 -375 255 -439 445 -31 91 -39 280 -16 370
62 249 290 461 611 568 178 59 344 82 600 82 271 0 457 -27 666 -96 235 -78
424 -199 625 -400 72 -73 151 -143 175 -157 115 -66 293 -77 401 -24 74 36
151 120 173 188 23 69 17 179 -14 243 -46 94 -239 306 -391 427 -242 194 -573
355 -890 432 -215 53 -362 69 -670 72 -157 2 -323 -1 -370 -6z"/>
<path d="M24405 7124 c-361 -38 -638 -115 -930 -258 -672 -330 -1216 -964
-1428 -1666 -148 -486 -164 -1045 -46 -1540 110 -463 333 -876 665 -1231 435
-464 942 -744 1522 -838 455 -75 942 -35 1359 110 383 133 720 355 1044 686
527 539 781 1168 782 1938 0 224 -9 344 -44 541 -114 660 -466 1246 -1010
1684 -381 307 -797 486 -1299 560 -75 12 -540 22 -615 14z m420 -1034 c208
-23 362 -68 550 -160 493 -240 836 -685 957 -1240 20 -93 22 -133 22 -345 0
-212 -2 -252 -22 -345 -121 -556 -461 -997 -957 -1241 -527 -258 -1144 -218
-1643 107 -312 203 -551 505 -685 864 -144 387 -144 841 0 1230 123 332 342
619 628 825 108 78 336 194 460 234 218 70 468 96 690 71z"/>
<path d="M30411 7120 c-734 -71 -1347 -411 -1855 -1027 -183 -223 -364 -552
-455 -828 -85 -257 -125 -474 -140 -760 -45 -829 220 -1545 784 -2124 162
-167 292 -277 462 -391 347 -232 709 -365 1148 -421 148 -19 531 -17 685 5
324 44 564 117 837 255 307 154 600 384 677 530 113 216 76 476 -92 633 -99
93 -202 132 -347 131 -152 -2 -230 -34 -394 -167 -212 -171 -440 -281 -705
-338 -88 -19 -132 -22 -331 -22 -200 0 -243 3 -332 22 -378 82 -711 277 -961
562 -359 410 -508 997 -390 1540 97 450 371 850 753 1100 425 277 972 352
1441 195 179 -60 382 -175 563 -319 134 -107 198 -136 331 -151 134 -15 294
41 392 139 99 100 148 221 148 370 0 196 -57 305 -237 456 -392 328 -805 517
-1297 591 -151 23 -532 33 -685 19z"/>
<path d="M40920 7119 c-622 -68 -1158 -327 -1610 -779 -401 -401 -659 -872
-763 -1390 -46 -231 -52 -299 -52 -615 1 -260 4 -319 23 -444 76 -483 265
-915 572 -1301 98 -124 330 -358 450 -454 118 -94 315 -224 440 -290 566 -297
1272 -372 1927 -206 326 83 615 224 903 439 205 153 277 241 315 387 19 75 19
204 0 279 -66 254 -317 413 -569 362 -109 -22 -166 -52 -286 -148 -323 -258
-636 -368 -1050 -369 -235 0 -428 38 -643 126 -451 184 -793 537 -968 999 -20
55 -35 103 -33 107 3 4 890 8 1972 8 2137 0 2012 -3 2126 55 116 58 209 171
247 298 20 65 21 85 16 281 -3 116 -13 258 -22 316 -95 617 -350 1117 -791
1552 -442 435 -918 681 -1489 770 -149 23 -570 33 -715 17z m458 -1029 c353
-37 694 -188 967 -427 208 -183 386 -444 484 -711 17 -46 31 -85 31 -88 0 -2
-740 -4 -1645 -4 l-1645 0 6 28 c10 41 73 200 106 265 166 332 441 601 783
767 300 146 604 202 913 170z"/>
<path d="M44893 7116 c-175 -44 -321 -190 -368 -367 -13 -46 -15 -399 -15
-2404 0 -2589 -5 -2402 61 -2526 43 -81 151 -182 233 -219 133 -61 295 -60
425 0 129 61 250 215 280 358 8 37 11 420 11 1268 0 793 4 1248 11 1312 79
723 590 1326 1271 1502 167 43 255 54 433 53 246 0 431 -33 657 -119 140 -53
239 -66 337 -44 176 39 321 183 376 375 22 76 17 248 -10 315 -80 200 -306
352 -650 436 -241 59 -667 88 -940 65 -511 -45 -984 -228 -1397 -542 -42 -33
-79 -59 -82 -59 -3 0 -6 33 -6 74 0 140 -33 241 -112 344 -51 65 -147 136
-225 164 -72 26 -215 33 -290 14z"/>
</g>
</svg>
