<svg xmlns="http://www.w3.org/2000/svg" viewBox="0 0 29 29"><defs><style>.cls-1{fill:#1d63ed;}</style></defs><g id="Layer_2" data-name="Layer 2"><g id="Layer_1-2" data-name="Layer 1"><path class="cls-1" d="M14.5,0A14.5,14.5,0,1,0,29,14.5,14.5,14.5,0,0,0,14.5,0ZM10.86,20.19H8.31V12h2.55Zm-.23-9.75a1.48,1.48,0,0,1-1.05.44,1.44,1.44,0,0,1-.82-.25,1.47,1.47,0,0,1-.24-2.27A1.49,1.49,0,0,1,10.14,8a1.46,1.46,0,0,1,.66.54,1.43,1.43,0,0,1,.26.82A1.53,1.53,0,0,1,10.63,10.44Zm9.75,9.75H17.84v-4c0-.95,0-2.17-1.32-2.17s-1.53,1-1.53,2.1v4.06H12.45V12h2.44v1.12h0a2.67,2.67,0,0,1,2.41-1.33c2.57,0,3,1.7,3,3.9Z"/></g></g></svg>