<svg xmlns="http://www.w3.org/2000/svg" viewBox="0 0 29 29"><defs><style>.cls-1{fill:#1d63ed;}</style></defs><g id="Layer_2" data-name="Layer 2"><g id="Layer_1-2" data-name="Layer 1"><path class="cls-1" d="M14.5,0A14.5,14.5,0,1,0,29,14.5,14.5,14.5,0,0,0,14.5,0ZM11.09,20.41a1.75,1.75,0,0,1-1.8.75,1.75,1.75,0,0,1-1.38-1.38,1.76,1.76,0,1,1,3.18.63Zm5.08.5a.46.46,0,0,1-.09.15.4.4,0,0,1-.15.1.47.47,0,0,1-.17,0H14.44a.45.45,0,0,1-.44-.41,6.12,6.12,0,0,0-5.72-5.72A.47.47,0,0,1,8,14.93a.41.41,0,0,1-.11-.3V13.31a.47.47,0,0,1,0-.17A.4.4,0,0,1,8,13a.46.46,0,0,1,.15-.09l.18,0a8.34,8.34,0,0,1,7.86,7.86A.57.57,0,0,1,16.17,20.91Zm4-.17a.47.47,0,0,1,0,.17.31.31,0,0,1-.1.15.71.71,0,0,1-.14.1.47.47,0,0,1-.17,0H18.39a.42.42,0,0,1-.3-.12.43.43,0,0,1-.13-.3A10.1,10.1,0,0,0,8.3,11.11.43.43,0,0,1,8,11a.42.42,0,0,1-.12-.3V9.36a.47.47,0,0,1,0-.17A.4.4,0,0,1,8,9,.38.38,0,0,1,8.16,9a.47.47,0,0,1,.17,0A12.29,12.29,0,0,1,20.15,20.74Z"/></g></g></svg>