<?xml version="1.0" encoding="UTF-8"?> <svg xmlns="http://www.w3.org/2000/svg" xmlns:xlink="http://www.w3.org/1999/xlink" version="1.1" id="Layer_1" x="0px" y="0px" viewBox="0 0 1920 852.6" style="enable-background:new 0 0 1920 852.6;" xml:space="preserve"> <style type="text/css"> .st0{clip-path:url(#SVGID_2_);} .st1{clip-path:url(#SVGID_4_);} .st2{fill:#0C49C2;} .st3{clip-path:url(#SVGID_6_);} .st4{fill:#1D63ED;} </style> <g> <defs> <rect id="SVGID_1_" y="-25.3" width="1920" height="878"></rect> </defs> <clipPath id="SVGID_2_"> <use xlink:href="#SVGID_1_" style="overflow:visible;"></use> </clipPath> <g class="st0"> <g> <defs> <rect id="SVGID_3_" x="306.7" y="-394.8" transform="matrix(0.2579 -0.9662 0.9662 0.2579 46.3515 1342.8112)" width="1181.3" height="2072.1"></rect> </defs> <clipPath id="SVGID_4_"> <use xlink:href="#SVGID_3_" style="overflow:visible;"></use> </clipPath> <g class="st1"> <path class="st2" d="M-4.8,3.5C124.8-17.2,245.6,57,346.7,140.9S544,323,666.9,361.9c130.5,41.3,274.3,9.9,408.8-34 s268.5-100.5,406.7-109.9c187.6-12.7,373.6,67.8,497.7,215.4c-47.9,231.1-96.7,472.9-144.6,703.9c-9.7,47-21.1,97.1-53,130.9 c-42.9,45.3-107.4,46.2-164.6,43.3c-383.3-19.7-763.9-76.7-1136.1-170.4c-110.5-27.8-221.6-59.5-318.6-121.3 S-16.5,862.1-45,740.4c-20.1-85.8-12.2-178.1-4.3-268.2C-35.5,316.7-18.5,159.1-4.8,3.5z"></path> </g> </g> <g> <defs> <rect id="SVGID_5_" x="393.2" y="-337.7" transform="matrix(0.2626 -0.9649 0.9649 0.2626 2.4456 1396.17)" width="1043" height="2068.3"></rect> </defs> <clipPath id="SVGID_6_"> <use xlink:href="#SVGID_5_" style="overflow:visible;"></use> </clipPath> <g class="st3"> <path class="st4" d="M5.7,98.2c127.8-14.2,249.3,56,351.5,134.1S557,401.2,679.6,440c130.3,41.2,271.9,18,404.1-16.6 s263.5-80.5,400.1-84.2c185.4-5,371.6,72.9,498.1,208.6c-41.8,204.2-84.2,417.9-126,622.2c-8.5,41.5-18.5,85.8-49.3,114.8 c-41.4,39-105.3,37.6-161.9,33c-381.2-30.5-759-94.1-1129.3-189.8c-110.1-28.5-220.9-60.4-318.5-118.7 C99.3,950.9,15,862.6-16.1,753.3c-22-77.1-16.5-159.1-10.8-239.1C-17.1,376.1-4.1,236.3,5.7,98.2z"></path> </g> </g> </g> </g> </svg> 