<svg xmlns="http://www.w3.org/2000/svg" viewBox="0 0 29 29"><defs><style>.cls-1{fill:#1d63ed;}</style></defs><g id="Layer_2" data-name="Layer 2"><g id="Layer_1-2" data-name="Layer 1"><path class="cls-1" d="M27.9,9a14.5,14.5,0,1,0,.82,8.38A14.58,14.58,0,0,0,27.9,9Zm-9.77.43H17a1.25,1.25,0,0,0-1,.34,1.29,1.29,0,0,0-.31.46,1.34,1.34,0,0,0-.08.56v1.65H18l-.39,2.54H15.59v6.14H12.85V14.93H10.62V12.39h2.23V10.46A3.05,3.05,0,0,1,13,9.12,3.12,3.12,0,0,1,13.71,8a3.27,3.27,0,0,1,1.12-.74A3.19,3.19,0,0,1,16.16,7a14.41,14.41,0,0,1,2,.17Z"/></g></g></svg>