<svg xmlns="http://www.w3.org/2000/svg" viewBox="0 0 29 29"><defs><style>.cls-1{fill:#1d63ed;}</style></defs><g id="Layer_2" data-name="Layer 2"><g id="Layer_1-2" data-name="Layer 1"><path class="cls-1" d="M20.35,9.59a2.34,2.34,0,0,0-.55-.87,2.5,2.5,0,0,0-.87-.56,4.35,4.35,0,0,0-1.39-.26c-.79,0-1,0-3-.05s-2.24,0-3,0h0a4.15,4.15,0,0,0-1.39.25,2.5,2.5,0,0,0-.87.56,2.46,2.46,0,0,0-.56.86A4.5,4.5,0,0,0,8.4,11c0,.79,0,1-.05,3s0,2.24,0,3a3.85,3.85,0,0,0,.26,1.39,2.23,2.23,0,0,0,.55.86,2.39,2.39,0,0,0,.87.57,4.35,4.35,0,0,0,1.39.26c.79,0,1,0,3,0s2.24,0,3,0a3.85,3.85,0,0,0,1.39-.26,2.14,2.14,0,0,0,.86-.56,2.27,2.27,0,0,0,.57-.86A4.35,4.35,0,0,0,20.6,17c0-.79,0-1,0-3s0-2.24,0-3A3.85,3.85,0,0,0,20.35,9.59Zm-5.86,8.26A3.85,3.85,0,1,1,18.35,14,3.85,3.85,0,0,1,14.49,17.85Zm4.84.51a.94.94,0,0,1-.34.4.87.87,0,0,1-.5.15.94.94,0,0,1-.63-.26A.9.9,0,0,1,17.6,18a.89.89,0,0,1,.15-.5.92.92,0,0,1,.4-.33.92.92,0,0,1,1,.19.94.94,0,0,1,.25.47A1,1,0,0,1,19.33,18.36Z"/><path class="cls-1" d="M15.89,11.92a2.52,2.52,0,0,0-1.38-.42,2.42,2.42,0,0,0-1,.19,2.35,2.35,0,0,0-.81.54,2.48,2.48,0,0,0-.55.81A2.6,2.6,0,0,0,12,14a2.5,2.5,0,0,0,4.26,1.78A2.51,2.51,0,0,0,17,14.49a2.46,2.46,0,0,0-.14-1.44A2.54,2.54,0,0,0,15.89,11.92Z"/><path class="cls-1" d="M14.5,0A14.5,14.5,0,1,0,29,14.5,14.5,14.5,0,0,0,14.5,0ZM22,14c0,2,0,2.3-.05,3.1a5.74,5.74,0,0,1-.35,1.82,3.7,3.7,0,0,1-.87,1.32,3.66,3.66,0,0,1-1.33.86,5.48,5.48,0,0,1-1.82.35c-.8,0-1.06,0-3.09,0s-2.3,0-3.1-.05a5.8,5.8,0,0,1-1.82-.35,3.7,3.7,0,0,1-1.32-.87,3.66,3.66,0,0,1-.86-1.33A5.48,5.48,0,0,1,7,17.08C7,16.28,7,16,7,14s0-2.3,0-3.1A5.8,5.8,0,0,1,7.4,9.07a3.7,3.7,0,0,1,.87-1.32A3.82,3.82,0,0,1,9.6,6.88a5.56,5.56,0,0,1,1.82-.34c.8,0,1.06,0,3.09,0s2.3,0,3.1,0a5.74,5.74,0,0,1,1.82.35,3.7,3.7,0,0,1,1.32.87,3.66,3.66,0,0,1,.86,1.33A5.48,5.48,0,0,1,22,10.92C22,11.72,22,12,22,14Z"/></g></g></svg>