<?xml version="1.0" standalone="no"?>
<!DOCTYPE svg PUBLIC "-//W3C//DTD SVG 20010904//EN"
 "http://www.w3.org/TR/2001/REC-SVG-20010904/DTD/svg10.dtd">
<svg version="1.0" xmlns="http://www.w3.org/2000/svg"
 width="1576.000000pt" height="1280.000000pt" viewBox="0 0 1576.000000 1280.000000"
 preserveAspectRatio="xMidYMid meet">

<g transform="translate(0.000000,1280.000000) scale(0.100000,-0.100000)"
fill="#000000" stroke="none">
<path d="M5420 12764 c-224 -27 -440 -155 -587 -349 -35 -45 -118 -215 -128
-260 -21 -95 -26 -143 -32 -264 l-5 -134 58 7 c33 3 97 11 144 16 188 22 485
39 655 39 170 0 467 -17 655 -39 47 -5 111 -13 144 -16 l58 -7 -5 134 c-6 121
-11 166 -32 264 -4 17 -31 80 -61 140 -111 230 -301 382 -563 451 -56 15 -238
26 -301 18z"/>
<path d="M5130 11139 c-25 -4 -69 -8 -97 -8 -83 -1 -364 -45 -578 -91 -22 -4
-62 -13 -90 -18 -27 -6 -66 -15 -85 -20 -19 -6 -71 -20 -115 -31 -91 -25 -261
-79 -287 -92 -10 -5 -25 -9 -33 -9 -8 0 -23 -4 -33 -9 -9 -5 -60 -26 -112 -46
-52 -20 -110 -43 -127 -51 -18 -8 -50 -21 -70 -30 -87 -36 -374 -180 -451
-225 -45 -27 -85 -49 -88 -49 -17 0 -427 -282 -539 -371 -457 -361 -806 -740
-1121 -1217 -51 -79 -94 -145 -94 -147 0 -3 -17 -31 -37 -62 -87 -137 -237
-440 -318 -643 -20 -52 -41 -104 -45 -115 -37 -93 -100 -277 -120 -350 -78
-281 -121 -479 -150 -675 -27 -187 -50 -427 -41 -436 6 -5 10046 -5 10052 0 8
9 -14 247 -40 431 -23 161 -64 361 -103 500 -6 22 -14 54 -19 70 -25 94 -36
131 -70 235 -33 103 -55 165 -79 225 -4 11 -25 63 -45 115 -79 197 -233 510
-319 644 -20 31 -36 58 -36 61 0 9 -155 243 -219 330 -203 277 -360 457 -621
710 -122 119 -196 182 -375 324 -118 94 -443 317 -540 372 -22 12 -62 35 -90
51 -63 37 -405 207 -465 231 -25 11 -58 25 -75 32 -16 7 -68 27 -115 45 -47
17 -94 35 -105 40 -27 11 -119 42 -230 75 -49 14 -101 30 -115 35 -34 11 -95
27 -155 40 -27 6 -66 15 -85 20 -45 11 -119 26 -195 39 -33 6 -96 17 -140 25
-44 8 -125 19 -180 25 -55 5 -145 15 -200 21 -114 12 -737 12 -805 -1z"/>
<path d="M11885 9402 c-247 -373 -397 -759 -460 -1185 -97 -660 17 -1269 323
-1722 86 -128 94 -108 -78 -195 -350 -176 -705 -267 -1220 -314 -431 -39 -431
-39 -5519 -37 l-4924 3 6 -293 c18 -863 176 -1668 476 -2414 117 -290 337
-706 511 -965 828 -1236 2106 -1987 3750 -2204 376 -50 549 -60 1045 -60 539
-1 765 14 1195 80 1843 282 3386 1247 4594 2874 533 716 1001 1575 1422 2608
l13 32 233 0 c477 0 803 46 1133 160 494 171 883 492 1145 945 58 102 220 424
220 440 0 17 -298 211 -381 249 -195 88 -496 157 -814 186 -167 15 -564 12
-733 -5 -81 -9 -216 -30 -300 -46 -84 -17 -155 -29 -156 -28 -1 2 -10 69 -20
148 -62 520 -300 983 -726 1411 -177 178 -304 285 -475 399 -71 48 -135 90
-140 93 -6 4 -60 -68 -120 -160z"/>
</g>
</svg>
