<!DOCTYPE svg PUBLIC "-//W3C//DTD SVG 1.1//EN" "http://www.w3.org/Graphics/SVG/1.1/DTD/svg11.dtd">
<!-- Uploaded to: SVG Repo, www.svgrepo.com, Transformed by: SVG Repo Mixer Tools -->
<svg fill="#ffffff" height="800px" width="800px" version="1.1" id="Capa_1" xmlns="http://www.w3.org/2000/svg" xmlns:xlink="http://www.w3.org/1999/xlink" viewBox="-76.8 -76.8 665.60 665.60" xml:space="preserve" stroke="#ffffff">
<g id="SVGRepo_bgCarrier" stroke-width="0">
<rect x="-76.8" y="-76.8" width="665.60" height="665.60" rx="332.8" fill="#6570A8" strokewidth="0"/>
</g>
<g id="SVGRepo_tracerCarrier" stroke-linecap="round" stroke-linejoin="round"/>
<g id="SVGRepo_iconCarrier"> <path d="M503.797,198.602C457.516,105.711,362.563,48,256,48C149.406,48,54.477,105.594,8.25,198.297 C2.852,209.109,0,221.641,0,234.523c0,25.172,11.25,48.672,30.859,64.469l123.953,99.819l-8.523,21.306 c-3.945,9.859-2.742,21.031,3.211,29.82C155.453,458.734,165.383,464,176,464h160c10.617,0,20.547-5.266,26.5-14.063 c5.953-8.789,7.156-19.961,3.211-29.82l-8.523-21.306l124.078-99.921C500.797,283.156,512,259.758,512,234.68 C512,221.875,509.172,209.406,503.797,198.602z M202.414,332.148c-3.016,2.586-6.719,3.852-10.406,3.852 c-4.508,0-8.992-1.898-12.156-5.586l-96-112c-5.75-6.711-4.977-16.813,1.734-22.563c6.695-5.758,16.805-4.977,22.563,1.734l96,112 C209.898,316.297,209.125,326.398,202.414,332.148z M272,304c0,8.836-7.164,16-16,16s-16-7.164-16-16V112c0-8.836,7.164-16,16-16 s16,7.164,16,16V304z M428.148,218.414l-96,112c-3.164,3.688-7.648,5.586-12.156,5.586c-3.688,0-7.391-1.266-10.406-3.852 c-6.711-5.75-7.484-15.852-1.734-22.563l96-112c5.766-6.703,15.875-7.469,22.563-1.734 C433.125,201.602,433.898,211.703,428.148,218.414z"/> </g>
</svg>