<!DOCTYPE svg PUBLIC "-//W3C//DTD SVG 1.1//EN" "http://www.w3.org/Graphics/SVG/1.1/DTD/svg11.dtd">
<!-- Uploaded to: SVG Repo, www.svgrepo.com, Transformed by: SVG Repo Mixer Tools -->
<svg height="800px" width="800px" version="1.1" id="Capa_1" xmlns="http://www.w3.org/2000/svg" xmlns:xlink="http://www.w3.org/1999/xlink" viewBox="-14.3 -14.3 100.09 100.09" xml:space="preserve" fill="#000000">
<g id="SVGRepo_bgCarrier" stroke-width="0" transform="translate(0,0), scale(1)">
<rect x="-14.3" y="-14.3" width="100.09" height="100.09" rx="50.045" fill="#F292A3" strokewidth="0"/>
</g>
<g id="SVGRepo_tracerCarrier" stroke-linecap="round" stroke-linejoin="round"/>
<g id="SVGRepo_iconCarrier"> <path style="fill:#ffffff;" d="M69.857,43.299l-10.626-5.432c3.038-3.402,4.707-7.433,4.707-11.651 c0-8.227-6.175-15.503-16.114-18.989c-1.109-0.388-2.342-0.096-3.155,0.751c-0.814,0.846-1.06,2.089-0.628,3.182 c0.338,0.857,0.51,1.734,0.51,2.609c0,0.492-0.052,0.688-0.045,0.69c-0.083,0.105-0.393,0.362-0.643,0.569 c-0.422,0.35-0.947,0.785-1.546,1.386c-0.688,0.692-0.996,1.676-0.826,2.637s0.796,1.78,1.68,2.194 c1.956,0.918,8.324,4.331,8.361,9.76c-2.459-1.79-5.451-3.167-8.78-3.981c0.156-0.366,0.242-0.769,0.242-1.193 c0-1.688-1.369-3.055-3.055-3.055c-1.688,0-3.055,1.367-3.055,3.055c0,0.13,0.023,0.255,0.038,0.381 c-0.39-0.015-0.782-0.023-1.176-0.023c-0.394,0-0.787,0.008-1.176,0.023c0.016-0.126,0.038-0.25,0.038-0.381 c0-1.688-1.369-3.055-3.055-3.055c-1.688,0-3.055,1.367-3.055,3.055c0,0.423,0.086,0.826,0.242,1.193 c-3.785,0.925-7.138,2.576-9.763,4.737c0.216-4.082,4.91-8.435,9.345-10.516c0.884-0.415,1.511-1.233,1.68-2.195 c0.17-0.961-0.139-1.945-0.827-2.637c-0.598-0.601-1.124-1.037-1.546-1.386c-0.255-0.211-0.572-0.474-0.622-0.528 c-0.001-0.001-0.065-0.181-0.065-0.73c0-0.873,0.172-1.751,0.511-2.61c0.432-1.092,0.186-2.335-0.628-3.181 c-0.814-0.848-2.05-1.14-3.154-0.751C13.729,10.71,7.554,17.987,7.554,26.215c0,4.218,1.669,8.249,4.707,11.651L1.635,43.299 C0.16,44.053-0.425,45.86,0.33,47.336c0.53,1.038,1.582,1.635,2.673,1.635c0.46,0,0.927-0.106,1.363-0.329l8.695-4.445 c0.069,0.981,0.255,1.939,0.536,2.869L2.868,52.551c-1.476,0.754-2.061,2.562-1.306,4.037c0.53,1.038,1.582,1.635,2.673,1.635 c0.46,0,0.927-0.106,1.363-0.329l10.888-5.566c0.491,0.589,1.027,1.154,1.607,1.692l-9.282,4.745 c-1.476,0.754-2.061,2.562-1.306,4.037c0.53,1.038,1.582,1.635,2.673,1.635c0.46,0,0.927-0.106,1.363-0.329l11.887-6.077 c0.131-0.067,0.253-0.143,0.369-0.226c3.474,1.623,7.568,2.563,11.949,2.563c4.381,0,8.475-0.94,11.949-2.563 c0.116,0.082,0.238,0.159,0.369,0.226l11.887,6.077c0.437,0.223,0.903,0.329,1.363,0.329c1.091,0,2.143-0.597,2.673-1.635 c0.755-1.476,0.17-3.283-1.306-4.037L53.4,54.02c0.58-0.538,1.116-1.103,1.606-1.692l10.888,5.566 c0.437,0.223,0.903,0.329,1.363,0.329c1.091,0,2.143-0.597,2.673-1.635c0.755-1.476,0.17-3.283-1.306-4.037l-10.729-5.485 c0.281-0.931,0.466-1.888,0.536-2.87l8.695,4.445c0.437,0.223,0.903,0.329,1.363,0.329c1.091,0,2.143-0.597,2.673-1.635 C71.918,45.86,71.333,44.053,69.857,43.299z M50.472,15.06c4.65,2.828,7.466,6.906,7.466,11.155c0,1.07-0.176,2.131-0.516,3.166 c-0.584-4.354-3.438-8.421-8.006-11.487C49.934,17.163,50.316,16.273,50.472,15.06z M21.02,15.06 c0.158,1.229,0.548,2.126,1.076,2.863c-3.65,2.491-6.962,6.022-8.393,10.004c-0.099-0.566-0.149-1.138-0.149-1.711 C13.554,21.966,16.37,17.888,21.02,15.06z M19.027,43.278c0-6.011,7.656-11.089,16.72-11.089c9.063,0,16.719,5.078,16.719,11.089 s-7.656,11.089-16.719,11.089C26.683,54.368,19.027,49.29,19.027,43.278z"/> </g>
</svg>